<svg width="20" height="20" viewBox="0 0 20 20" fill="none" xmlns="http://www.w3.org/2000/svg">
<path fill-rule="evenodd" clip-rule="evenodd" d="M10 2.4C7.98435 2.4 6.05126 3.20071 4.62599 4.62599C3.20071 6.05126 2.4 7.98435 2.4 10C2.4 12.0156 3.20071 13.9487 4.62599 15.374C6.05126 16.7993 7.98435 17.6 10 17.6C12.0156 17.6 13.9487 16.7993 15.374 15.374C16.7993 13.9487 17.6 12.0156 17.6 10C17.6 7.98435 16.7993 6.05126 15.374 4.62599C13.9487 3.20071 12.0156 2.4 10 2.4ZM1.2 10C1.2 8.84436 1.42762 7.70005 1.86986 6.63238C2.3121 5.56472 2.9603 4.59461 3.77746 3.77746C4.59461 2.9603 5.56472 2.3121 6.63238 1.86986C7.70005 1.42762 8.84436 1.2 10 1.2C11.1556 1.2 12.2999 1.42762 13.3676 1.86986C14.4353 2.3121 15.4054 2.9603 16.2225 3.77746C17.0397 4.59461 17.6879 5.56472 18.1301 6.63238C18.5724 7.70005 18.8 8.84436 18.8 10C18.8 12.3339 17.8729 14.5722 16.2225 16.2225C14.5722 17.8729 12.3339 18.8 10 18.8C7.66609 18.8 5.42778 17.8729 3.77746 16.2225C2.12714 14.5722 1.2 12.3339 1.2 10Z" fill="#EEEEEE"/>
<path fill-rule="evenodd" clip-rule="evenodd" d="M18 10.5333H2V9.46666H18V10.5333Z" fill="#EEEEEE"/>
<path fill-rule="evenodd" clip-rule="evenodd" d="M9.46666 18V2H10.5333V18H9.46666ZM13.8333 10C13.8333 7.10267 12.792 4.23733 10.7493 2.34267L11.384 1.65733C13.6533 3.764 14.7667 6.89733 14.7667 10C14.7667 13.1027 13.6533 16.2373 11.384 18.3427L10.7493 17.6573C12.792 15.764 13.8333 12.8973 13.8333 10ZM5.33333 10C5.33333 6.90133 6.41066 3.76933 8.61066 1.66267L9.25599 2.33733C7.27733 4.23067 6.26666 7.09733 6.26666 10C6.26666 12.9013 7.27733 15.7693 9.25599 17.6627L8.61066 18.3373C6.41066 16.2307 5.33333 13.0973 5.33333 10Z" fill="#EEEEEE"/>
<path fill-rule="evenodd" clip-rule="evenodd" d="M10 5.27733C12.8933 5.27733 15.8333 5.81199 17.8267 6.92533C17.8803 6.95509 17.9274 6.99512 17.9656 7.04313C18.0037 7.09113 18.0319 7.14617 18.0488 7.20511C18.0656 7.26404 18.0707 7.32571 18.0637 7.38661C18.0567 7.4475 18.0378 7.50642 18.008 7.56C17.9782 7.61357 17.9382 7.66077 17.8902 7.69888C17.8422 7.73699 17.7872 7.76527 17.7282 7.78211C17.6693 7.79894 17.6076 7.80401 17.5467 7.79701C17.4858 7.79002 17.4269 7.7711 17.3733 7.74133C15.5733 6.736 12.8107 6.21066 10 6.21066C7.18934 6.21066 4.42667 6.736 2.62667 7.74133C2.51846 7.80144 2.3908 7.81611 2.27178 7.78211C2.15276 7.7481 2.05212 7.6682 1.992 7.56C1.93189 7.45179 1.91722 7.32413 1.95122 7.20511C1.98523 7.08608 2.06513 6.98544 2.17334 6.92533C4.16667 5.81199 7.10667 5.27733 10 5.27733ZM10 14.4667C12.8933 14.4667 15.8333 13.932 17.8267 12.8187C17.8803 12.7889 17.9274 12.7489 17.9656 12.7009C18.0037 12.6529 18.0319 12.5978 18.0488 12.5389C18.0656 12.4799 18.0707 12.4183 18.0637 12.3574C18.0567 12.2965 18.0378 12.2376 18.008 12.184C17.9782 12.1304 17.9382 12.0832 17.8902 12.0451C17.8422 12.007 17.7872 11.9787 17.7282 11.9619C17.6693 11.945 17.6076 11.94 17.5467 11.947C17.4858 11.954 17.4269 11.9729 17.3733 12.0027C15.5733 13.008 12.8107 13.5333 10 13.5333C7.18934 13.5333 4.42667 13.008 2.62667 12.0027C2.57301 11.9694 2.51316 11.9474 2.45074 11.9379C2.38833 11.9285 2.32464 11.9318 2.26354 11.9477C2.20244 11.9635 2.1452 11.9916 2.09527 12.0303C2.04535 12.0689 2.00378 12.1173 1.97308 12.1724C1.94239 12.2276 1.9232 12.2884 1.91669 12.3512C1.91018 12.414 1.91647 12.4774 1.93519 12.5377C1.95391 12.598 1.98467 12.6539 2.0256 12.7019C2.06654 12.75 2.11679 12.7893 2.17334 12.8173C4.16667 13.932 7.10667 14.4667 10 14.4667Z" fill="#EEEEEE"/>
</svg>
