<svg width="20" height="20" viewBox="0 0 20 20" fill="none" xmlns="http://www.w3.org/2000/svg">
<path d="M17.3667 1.81667L14.0917 2.46667L16.375 5.41667L18.0167 5.08333L17.3667 1.81667ZM11.6417 2.95L10 3.275L12.2917 6.21667L13.925 5.89167L11.6417 2.95ZM7.55834 3.75L5.91667 4.09167L8.20834 7.03333L9.84167 6.70833L7.55834 3.75ZM3.46667 4.58333L2.65001 4.74167C2.21699 4.82818 1.83601 5.083 1.59071 5.45017C1.34541 5.81734 1.25584 6.26685 1.34167 6.7L1.66667 8.33333L5.75001 7.525L3.46667 4.58333ZM1.66667 8.33333V16.6667C1.66667 17.1087 1.84227 17.5326 2.15483 17.8452C2.46739 18.1577 2.89131 18.3333 3.33334 18.3333H16.6667C17.5917 18.3333 18.3333 17.5917 18.3333 16.6667V8.33333H1.66667Z" fill="#6087A9"/>
</svg>
