<svg id="eywp1HuevaO1" xmlns="http://www.w3.org/2000/svg" xmlns:xlink="http://www.w3.org/1999/xlink" viewBox="0 0 145.09 83.87" shape-rendering="geometricPrecision" text-rendering="geometricPrecision">
<style><![CDATA[
#eywp1HuevaO5_to {animation: eywp1HuevaO5_to__to 3000ms linear infinite normal forwards}@keyframes eywp1HuevaO5_to__to { 0% {transform: translate(52.548399px,-50.044997px);animation-timing-function: cubic-bezier(0.25,1,0.25,1)} 50% {transform: translate(52.548399px,41.955003px)} 100% {transform: translate(52.548399px,41.955003px)}} #eywp1HuevaO5 {animation: eywp1HuevaO5_c_o 3000ms linear infinite normal forwards}@keyframes eywp1HuevaO5_c_o { 0% {opacity: 1} 50% {opacity: 1} 93.333333% {opacity: 0} 100% {opacity: 0}} #eywp1HuevaO6_to {animation: eywp1HuevaO6_to__to 3000ms linear infinite normal forwards}@keyframes eywp1HuevaO6_to__to { 0% {transform: translate(92.304989px,131.870737px);animation-timing-function: cubic-bezier(0.25,1,0.25,1)} 50% {transform: translate(92.304989px,41.870737px)} 100% {transform: translate(92.304989px,41.870737px)}} #eywp1HuevaO6 {animation: eywp1HuevaO6_c_o 3000ms linear infinite normal forwards}@keyframes eywp1HuevaO6_c_o { 0% {opacity: 1} 50% {opacity: 1} 93.333333% {opacity: 0} 100% {opacity: 0}}
]]></style>
<g><g><g><g id="eywp1HuevaO5_to" transform="translate(52.548399,-50.044997)"><path id="eywp1HuevaO5" d="M97.18,5.58v0c-4.098197-2.809976-9.698228-1.766965-12.51,2.33L52.81,54.4v0L20.94,7.91C18.128228,3.813035,12.528197,2.770024,8.43,5.58l-.52.35C3.813035,8.741772,2.770024,14.341803,5.58,18.44L45,76c2.811772,4.096965,8.411803,5.139976,12.51,2.33l.52-.35c1.47129-1.00909,2.609477-2.432693,3.27-4.09v0l38.22-55.8c2.807973-4.100797,1.760376-9.701412-2.34-12.51Z" transform="translate(-52.548399,-41.955003)" fill="none" stroke="#9cacba" stroke-width="8" stroke-miterlimit="10"/></g><g id="eywp1HuevaO6_to" transform="translate(92.304989,131.870737)"><path id="eywp1HuevaO6" d="M92.31,4c3.040619-.069612,5.910707,1.401167,7.63,3.91l39.58,57.74c1.351615,1.970038,1.864464,4.39665,1.425535,6.745108s-1.793613,4.426026-3.765535,5.774892v0c-4.100797,2.807973-9.701412,1.760376-12.51-2.34L92.31,28.61L59.94,75.83c-2.808588,4.100376-8.409203,5.147973-12.51,2.34v0c-1.971922-1.348866-3.326606-3.426434-3.765535-5.774892s.07392-4.77507,1.425535-6.745108L84.67,7.91C86.391245,5.398151,89.265868,3.926976,92.31,4Z" transform="translate(-92.304989,-41.870737)" fill="none" stroke="#fff" stroke-width="8" stroke-miterlimit="10"/></g></g></g></g></svg>
