<svg xmlns="http://www.w3.org/2000/svg" viewBox="0 0 145.09 83.87"><defs><style>.cls-1,.cls-2{fill:none;stroke-miterlimit:10;stroke-width:8px;}.cls-1{stroke:#9cacba;}.cls-2{stroke:#fff;}</style></defs><g id="Layer_2" data-name="Layer 2"><g id="Layer_2-2" data-name="Layer 2"><g id="logo"><path class="cls-1" d="M97.18,5.58h0A9,9,0,0,0,84.67,7.91L52.81,54.4h0L20.94,7.91A9,9,0,0,0,8.43,5.58l-.52.35A9,9,0,0,0,5.58,18.44L45,76a9,9,0,0,0,12.51,2.33l.52-.35a9,9,0,0,0,3.27-4.09h0L99.52,18.09A9,9,0,0,0,97.18,5.58Z"/><path class="cls-2" d="M92.31,4a9,9,0,0,1,7.63,3.91l39.58,57.74a9,9,0,0,1-2.34,12.52h0a9,9,0,0,1-12.51-2.34L92.31,28.61,59.94,75.83a9,9,0,0,1-12.51,2.34h0a9,9,0,0,1-2.34-12.52L84.67,7.91A9,9,0,0,1,92.31,4Z"/></g></g></g></svg>