<svg width="448" height="251" viewBox="0 0 448 251" fill="none" xmlns="http://www.w3.org/2000/svg">
<path d="M307.748 35.2811L319.351 48.8896L319.856 54.9377L353.658 66.0261L371.82 60.9859L389.982 75.6024L404.613 75.0984L443.459 85.1787L445.478 94.755L438.919 110.884L448 128.524L446.486 139.108L422.27 141.125L411.171 150.197L413.189 163.805L393.513 166.325L378.378 176.91L355.171 178.422L334.991 190.518L340.036 210.175L354.162 217.735L379.892 215.719L376.865 227.311L349.622 232.855L317.838 251L302.198 244.448L305.73 229.831L275.964 220.255L279.495 214.207L302.703 203.622L294.126 196.566L253.262 188.502L249.225 176.406L226.523 180.438L219.964 198.078L203.315 221.263L191.207 215.719L179.604 221.263L167.496 215.215L173.55 211.687L176.576 201.102L182.127 190.518L179.099 184.974L184.144 182.454L187.172 186.99L202.307 187.998L208.865 185.478L203.82 182.454L204.829 177.414L194.739 169.349L189.189 156.245L179.099 151.205L179.604 140.62L166.486 132.052L156.396 130.54L136.216 120.964L120.072 123.988L114.523 128.524H103.928L98.8833 136.084L80.7207 139.108L72.6487 144.149L60.0361 136.084H43.8922L27.7477 132.556L17.6576 139.612L15.1351 131.044L0 122.476L3.5319 109.875L9.5857 101.307L15.1351 103.323L7.06318 89.2108L26.2346 63.002L37.8378 59.4738L39.3516 50.9056L23.2077 23.6887L34.8109 22.1767L46.9191 14.1124L66.0905 13.1044L90.8108 15.6245L119.568 23.1847L139.244 23.6887L148.829 28.2249L157.406 22.6807L164.973 30.241L186.667 28.7289L197.262 31.753L195.748 16.1285L202.307 9.07223L222.991 7.56024L232.072 8.56826L237.117 1.51199L244.685 3.02405L269.405 0L288.577 17.6406L284.036 24.1927L288.072 33.7691L307.748 35.2811Z" fill="#F4F4F4" fill-opacity="0.1"/>
</svg>
